HIERARCHY
ROOT Hips
{
  OFFSET 0 0 0
  CHANNELS 6 Xposition Yposition Zposition Zrotation Yrotation Xrotation
  JOINT LeftThigh
  {
    OFFSET 8.409438 0 -5.917753
    CHANNELS 3 Zrotation Yrotation Xrotation
    JOINT LeftLeg
    {
      OFFSET 0 0 -42.358652
      CHANNELS 3 Zrotation Yrotation Xrotation
      JOINT LeftFoot
      {
        OFFSET 0 0 -39.357303
        CHANNELS 3 Zrotation Yrotation Xrotation
      }
    }
  }
  JOINT RightThigh
  {
    OFFSET -8.409438 0 -5.917753
    CHANNELS 3 Zrotation Yrotation Xrotation
    JOINT RightLeg
    {
      OFFSET 0 0 -42.358652
      CHANNELS 3 Zrotation Yrotation Xrotation
      JOINT RightFoot
      {
        OFFSET 0 0 -39.357303
        CHANNELS 3 Zrotation Yrotation Xrotation
      }
    }
  }
  JOINT SpineLow
  {
    OFFSET 0 0 4.719101
    CHANNELS 3 Zrotation Yrotation Xrotation
    JOINT SpineMid
    {
      OFFSET 0 0 12.899191
      CHANNELS 3 Zrotation Yrotation Xrotation
      JOINT Chest
      {
        OFFSET 0 0 12.899191
        CHANNELS 3 Zrotation Yrotation Xrotation
        JOINT LeftShoulder
        {
          OFFSET 7.550562 1.41573 9.438202
          CHANNELS 3 Zrotation Yrotation Xrotation
          JOINT LeftArm
          {
            OFFSET 9.155056 0 4.247191
            CHANNELS 3 Zrotation Yrotation Xrotation
            JOINT LeftForearm
            {
              OFFSET 0 0 25.771955
              CHANNELS 3 Zrotation Yrotation Xrotation
              JOINT LeftHand
              {
                OFFSET 0 0 25.197169
                CHANNELS 3 Zrotation Yrotation Xrotation
              }
            }
          }
        }
        JOINT RightShoulder
        {
          OFFSET -7.550562 1.41573 9.438202
          CHANNELS 3 Zrotation Yrotation Xrotation
          JOINT RightArm
          {
            OFFSET -9.155056 0 4.247191
            CHANNELS 3 Zrotation Yrotation Xrotation
            JOINT RightForearm
            {
              OFFSET 0 0 -25.771955
              CHANNELS 3 Zrotation Yrotation Xrotation
              JOINT RightHand
              {
                OFFSET 0 0 -25.197169
                CHANNELS 3 Zrotation Yrotation Xrotation
              }
            }
          }
        }
        JOINT Neck
        {
          OFFSET 0 0 15.101124
          CHANNELS 3 Zrotation Yrotation Xrotation
          JOINT Head
          {
            OFFSET 0 0 11.325843
            CHANNELS 3 Zrotation Yrotation Xrotation
            End Site
            {
              OFFSET 0 0 14.157303
            }
          }
        }
      }
    }
  }
}
MOTION
Frames: 7
Frame Time: 0.0
0.0  89.887642  0.0  -90.855673  40.578026  -171.870358  13.651762  -52.554117  -25.553395  -16.504464  8.275  18.407796  9.365486  -2.687409  4.522696  12.177155  44.417717  -18.398291  3.222034  12.153821  12.969896  8.017913  5.169688  -0.686878  -3.390919  -3.895087  -0.640573  -9.239023  -10.712253  -1.207241  -9.239023  -10.712253  -1.20724  -14.255413  14.812415  1.251282  98.321097  57.977416  -160.667424  -27.256262  0.707023  71.130618  59.98568  -0.706697  33.58068  -18.944124  8.961643  10.322475  61.3434  53.9076  55.609373  -26.427272  -11.261844  -56.952168  70.002047  7.147811  -3.565323  -41.373908  3.145266  22.386539  -31.189309  0.844242  17.09382  
0.0  89.887642  0.0  -93.891487  40.366961  -173.987404  12.789115  -52.56475  -26.864636  -17.618205  7.829477  18.612535  10.481142  -2.715174  4.588211  16.364385  45.709901  -12.631698  0.384611  9.866349  9.347478  4.574651  4.040378  0.618122  -3.256296  -3.682732  -0.806339  -8.840395  -10.153333  -1.713306  -8.840395  -10.153332  -1.713306  -14.634892  14.296874  1.806534  97.758092  58.646917  -160.923757  -28.449904  1.904232  70.89918  58.783387  0.506336  34.313268  -21.129905  8.396987  9.164136  61.655746  50.474586  58.424277  -25.377356  -13.72785  -56.048184  69.161749  7.111767  -3.344613  -42.021205  2.456303  22.893167  -31.658002  0.264482  17.436304  
0.0  89.887642  0.0  -96.039168  40.258455  -175.1955  14.08494  -52.782982  -29.899976  -17.672098  7.812164  19.523687  10.481233  -2.535186  4.408737  12.75489  45.66113  -13.558356  -3.012903  7.691178  6.425626  3.442535  3.645091  1.22093  -3.210807  -3.492542  -0.922435  -8.698097  -9.648726  -2.063858  -8.698097  -9.648726  -2.063858  -13.736904  13.651216  1.783553  98.609563  58.46813  -157.944699  -28.145042  0.427675  69.360412  59.683953  0.453519  32.415645  -22.429901  8.31836  8.752364  60.763619  48.095388  59.211431  -24.15617  -15.369857  -55.319472  68.066784  6.524555  -2.204621  -41.97334  1.644201  22.873403  -31.594324  -0.345893  17.366286  
0.0  89.887642  0.0  -96.964223  40.256869  -175.798782  13.943528  -53.267061  -30.264515  -15.483712  7.483552  20.120746  9.948211  -2.620596  4.257317  3.687073  45.367927  -20.763916  -4.9151  4.282706  6.850799  2.065061  4.149791  1.331368  -3.256076  -3.35936  -0.848447  -8.834038  -9.276844  -1.871379  -8.834038  -9.276844  -1.871379  -11.747557  13.361992  0.820901  100.54784  58.856814  -156.612433  -26.829773  -0.331059  69.425181  61.699768  -0.523189  29.557995  -22.745668  9.024165  8.946073  59.022916  46.861081  57.807113  -22.971643  -16.056207  -54.740033  66.640032  5.241045  0.196866  -41.154073  0.671556  22.134956  -30.940073  -0.998849  16.7383  
0.0  89.887642  0.0  -96.532414  40.100092  -175.5943  13.027661  -54.360467  -28.878062  -12.880215  7.200063  20.301555  9.490667  -2.633852  4.375243  -7.077882  43.084405  -30.334559  -5.354268  1.956353  9.288885  1.572219  5.080847  1.087738  -3.310044  -3.292188  -0.663495  -9.008395  -9.069916  -1.365163  -9.008394  -9.069916  -1.365163  -9.533961  14.078949  -0.418313  102.285764  59.291811  -156.08641  -24.805136  -1.204429  69.959123  64.880952  -0.918091  26.209877  -21.990018  9.820919  9.296316  57.376089  46.290365  55.864845  -21.947035  -16.290376  -54.091781  65.035364  3.492039  3.468714  -39.746113  -0.178006  20.951132  -29.84719  -1.509927  15.782541  
0.0  89.887642  0.0  -94.655731  39.524481  -174.724381  11.713767  -55.783242  -26.202932  -10.788925  7.00208  20.480025  9.093323  -2.589356  4.606156  -17.083046  37.63939  -38.255332  -3.611082  1.578939  11.054633  2.339808  6.115072  0.300027  -3.348825  -3.222138  -0.355381  -9.156358  -8.837101  -0.52428  -9.156358  -8.837101  -0.52428  -7.592809  14.760246  -1.404101  105.454109  59.859756  -155.030244  -23.155515  -1.826692  70.40858  67.808403  -0.808811  24.357028  -20.064293  9.86712  9.461277  56.340552  46.100055  54.1937  -21.06217  -16.180212  -52.98024  63.438531  1.843574  6.767479  -37.751181  -0.847748  19.750983  -28.322303  -1.869903  14.828904  
0.0  89.887642  0.0  -91.718213  38.952689  -173.647683  9.232471  -56.62351  -21.940909  -9.477584  6.652406  20.961065  9.253161  -2.459057  4.896132  -25.002614  30.263382  -41.911645  0.221101  2.465501  10.428705  3.765694  6.433026  -0.245795  -3.286152  -3.082814  0.00885  -9.028585  -8.407341  0.446658  -9.028585  -8.407341  0.446659  -6.50684  15.022377  -1.774897  111.484931  60.501521  -151.881022  -21.68725  -1.266202  70.647352  69.23534  -0.762376  24.036096  -18.013155  9.438614  9.407004  56.363423  46.332369  53.15133  -20.336678  -16.028351  -51.448179  62.055051  0.420378  9.378426  -35.61346  -1.247762  18.628475  -26.701803  -2.034324  13.955163  
